<svg xmlns="http://www.w3.org/2000/svg" fill="none" viewBox="0 0 57 26"><path fill="url(#a)" d="M56.5 0h-40v.5h40z"/><path fill="url(#b)" d="M56.5.5h-40V1h40z" opacity=".25"/><path fill="url(#c)" d="M.402 9v15.5L3 26V10.577L10 2h21.5l2-2H9.402z" opacity=".56"/><path fill="#787067" d="M37 2.5h-7V3h7z"/><g filter="url(#d)"><path fill="url(#e)" d="M24 5.5 27 3H10.877L4 10.149V21l2.456-2.553v-6.96L12 5.5z"/></g><path fill="url(#f)" d="M25 5H12v.5h12.133z"/><path fill="url(#g)" d="m6 11 6-6 .5.5-6 6z"/><g filter="url(#h)"><path fill="url(#i)" d="M29 4.5 32 2H9.877L3 9.149V26l2.456-2.553v-12.96l5.895-6.128z"/></g><path fill="url(#j)" d="M0 0h27v.5H0z" transform="matrix(-1 0 0 1 37 2)"/><path fill="url(#k)" d="M29.594 4H16.999v.5h12z"/><defs><linearGradient id="a" x1="33" x2="16.5" y1=".25" y2=".25" gradientUnits="userSpaceOnUse"><stop stop-color="#4b4630"/><stop offset="1" stop-color="#4b4630" stop-opacity="0"/></linearGradient><linearGradient id="b" x1="33" x2="16.5" y1=".75" y2=".75" gradientUnits="userSpaceOnUse"><stop stop-color="#423d39"/><stop offset="1" stop-color="#423d39" stop-opacity="0"/></linearGradient><linearGradient id="c" x1="25.883" x2="-3.571" y1="0" y2="31.644" gradientUnits="userSpaceOnUse"><stop stop-color="#6d633b"/><stop offset=".25" stop-color="#423e29"/><stop offset=".5" stop-color="#423e29"/><stop offset=".75" stop-color="#252610"/><stop offset="1" stop-color="#252610"/></linearGradient><linearGradient id="e" x1="30.995" x2="-2.733" y1="-1.877" y2="30.569" gradientUnits="userSpaceOnUse"><stop offset=".5" stop-color="#95792a"/><stop offset="1" stop-color="#c1ba7c"/></linearGradient><linearGradient id="f" x1="25" x2="12" y1="5.25" y2="5.25" gradientUnits="userSpaceOnUse"><stop stop-color="#949153"/><stop offset="1" stop-color="#949153" stop-opacity="0"/></linearGradient><linearGradient id="g" x1="12.5" x2="6" y1="8.25" y2="8.25" gradientUnits="userSpaceOnUse"><stop stop-color="#897027"/><stop offset="1" stop-color="#949153" stop-opacity="0"/></linearGradient><linearGradient id="i" x1="30.995" x2="-2.733" y1="-2.877" y2="29.569" gradientUnits="userSpaceOnUse"><stop stop-color="#f8f8f8"/><stop offset=".5" stop-color="#dfdbb6"/><stop offset=".75" stop-color="#bfb76c"/><stop offset="1" stop-color="#f8f8f8"/></linearGradient><linearGradient id="j" x1="0" x2="27" y1=".25" y2=".25" gradientUnits="userSpaceOnUse"><stop stop-color="#696243"/><stop offset="1" stop-color="#696243" stop-opacity="0"/></linearGradient><linearGradient id="k" x1="30" x2="17" y1="4.25" y2="4.25" gradientUnits="userSpaceOnUse"><stop stop-color="#949153"/><stop offset="1" stop-color="#949153" stop-opacity="0"/></linearGradient><filter id="d" width="23" height="18" x="4" y="3" color-interpolation-filters="sRGB" filterUnits="userSpaceOnUse"><feFlood flood-opacity="0" result="BackgroundImageFix"/><feBlend in="SourceGraphic" in2="BackgroundImageFix" result="shape"/><feColorMatrix in="SourceAlpha" result="hardAlpha" values="0 0 0 0 0 0 0 0 0 0 0 0 0 0 0 0 0 0 127 0"/><feOffset/><feGaussianBlur stdDeviation=".75"/><feComposite in2="hardAlpha" k2="-1" k3="1" operator="arithmetic"/><feColorMatrix values="0 0 0 0 0 0 0 0 0 0 0 0 0 0 0 0 0 0 0.56 0"/><feBlend in2="shape" result="effect1_innerShadow_210_12118"/></filter><filter id="h" width="29" height="24" x="3" y="2" color-interpolation-filters="sRGB" filterUnits="userSpaceOnUse"><feFlood flood-opacity="0" result="BackgroundImageFix"/><feBlend in="SourceGraphic" in2="BackgroundImageFix" result="shape"/><feColorMatrix in="SourceAlpha" result="hardAlpha" values="0 0 0 0 0 0 0 0 0 0 0 0 0 0 0 0 0 0 127 0"/><feOffset/><feGaussianBlur stdDeviation=".75"/><feComposite in2="hardAlpha" k2="-1" k3="1" operator="arithmetic"/><feColorMatrix values="0 0 0 0 0.772549 0 0 0 0 0.741176 0 0 0 0 0.356863 0 0 0 1 0"/><feBlend in2="shape" result="effect1_innerShadow_210_12118"/></filter></defs></svg>
