<svg fill="none" xmlns="http://www.w3.org/2000/svg" viewBox="0 0 35 34"><path d="M17.5 2.833C9.694 2.833 3.333 9.194 3.333 17S9.693 31.166 17.5 31.166c7.805 0 14.166-6.36 14.166-14.166S25.306 2.833 17.5 2.833Zm0 22.667a1.42 1.42 0 0 1-1.417-1.417c0-.779.638-1.416 1.417-1.416s1.416.637 1.416 1.416A1.42 1.42 0 0 1 17.5 25.5Zm2.89-6.63c-1.304.864-1.516 1.332-1.544 1.417-.199.595-.751.963-1.346.963a1.68 1.68 0 0 1-.454-.071 1.438 1.438 0 0 1-.892-1.8c.439-1.274 1.728-2.252 2.663-2.875 1.771-1.176 1.544-2.451 1.474-2.862-.199-1.119-1.148-2.068-2.267-2.266a2.838 2.838 0 0 0-3.358 2.79 1.42 1.42 0 0 1-1.416 1.417 1.42 1.42 0 0 1-1.417-1.417c0-1.671.737-3.258 2.026-4.335 1.289-1.09 2.989-1.53 4.66-1.246 2.282.41 4.152 2.28 4.562 4.561.397 2.267-.566 4.307-2.691 5.724Z" fill="#6B6F7B"/></svg>