<svg fill="none" xmlns="http://www.w3.org/2000/svg" viewBox="0 0 26 26"><path fill-rule="evenodd" clip-rule="evenodd" d="M1.564 10.3936c-.47 0-.8597-.3897-.8597-.8597 0-4.8948 3.9892-8.884 8.884-8.884.3095 0 .596.172.7451.4356.149.2751.149.596-.0115.8712l-1.2036 2.006c-.2408.4013-.768.5388-1.1807.2866-.4013-.2407-.5388-.768-.2866-1.1807l.3095-.5158c-3.1753.7451-5.5367 3.588-5.5367 6.981 0 .4701-.3898.8598-.8598.8598Zm14.9024 14.9021c-.3095 0-.5961-.1719-.7451-.4356-.1491-.2751-.1491-.5961.0114-.8712l1.2037-2.006c.2407-.4012.768-.5388 1.1807-.2981.4126.2408.5387.7681.298 1.1807l-.3095.5159c3.1638-.7451 5.5367-3.588 5.5367-6.9811 0-.47.3898-.8597.8598-.8597.47 0 .8597.3897.8597.8597-.0115 4.9062-4.0007 8.8954-8.8954 8.8954ZM13.761 6.3012l4.3102 2.327c.3095.172.5044.5044.5044.8712 0 .3783-.1949.7107-.5044.8827l-4.3102 2.327c-.2292.1261-.4814.1834-.7336.1834-.2522 0-.5044-.0573-.7337-.1834l-4.3101-2.327c-.3095-.172-.5044-.5044-.5044-.8827 0-.3668.1949-.6992.5044-.8712l4.3216-2.327a1.5576 1.5576 0 0 1 1.4558 0Zm-2.1782 7.2104-4.012-2.006c-.3096-.149-.665-.1376-.963.0458-.2866.1835-.4585.493-.4585.8369v3.7943c0 .6534.3668 1.2495.9514 1.536l4.0122 2.0061c.1375.0688.2865.1032.447.1032.1834 0 .3554-.0459.5159-.1491.298-.1834.4699-.4929.4699-.8368v-3.7943c-.0114-.6534-.3668-1.238-.9629-1.5361Zm6.8893-2.006c.3095-.149.6649-.1376.9629.0458.2981.1835.47.493.47.8369v3.7943c0 .6534-.3668 1.238-.9514 1.536l-4.0121 2.0061c-.1491.0688-.2981.1032-.4471.1032-.1834 0-.3554-.0459-.5158-.1491-.2981-.1834-.47-.4929-.47-.8368v-3.7943c0-.6534.3668-1.238.9514-1.5361l4.0121-2.006Z" fill="#FFBA7B"/></svg>
