<svg fill="none" xmlns="http://www.w3.org/2000/svg" viewBox="0 0 56 56"><g clip-path="url(#a)"><path d="M23.5 2.598a9 9 0 0 1 9 0l15.249 8.804a9 9 0 0 1 4.5 7.794v17.608a9 9 0 0 1-4.5 7.794L32.5 53.402a9 9 0 0 1-9 0L8.251 44.598a9 9 0 0 1-4.5-7.794V19.196a9 9 0 0 1 4.5-7.794L23.5 2.598Z" fill="url(#b)" fill-opacity=".4"/><path d="M24 6.31a8 8 0 0 1 8 0l12.785 7.38a8 8 0 0 1 4 6.929V35.38a8 8 0 0 1-4 6.928L32 49.691a8 8 0 0 1-8 0l-12.785-7.382a8 8 0 0 1-4-6.928V20.62a8 8 0 0 1 4-6.928L24 6.309Z" fill="url(#c)"/></g><defs><linearGradient id="b" x1="0" y1="0" x2="63.575" y2="54.922" gradientUnits="userSpaceOnUse"><stop stop-color="#573E30"/><stop offset="1" stop-color="#FFBC6D"/></linearGradient><linearGradient id="c" x1="21.309" y1="8.147" x2="38.728" y2="51.889" gradientUnits="userSpaceOnUse"><stop stop-color="#19191D"/><stop offset="1" stop-color="#2F2F35"/></linearGradient><clipPath id="a"><path fill="#fff" d="M0 0h56v56H0z"/></clipPath></defs></svg>