<svg xmlns="http://www.w3.org/2000/svg" width="24" height="24" fill="none" viewBox="0 0 24 24"><path fill="#44c987" fill-rule="evenodd" d="M17.83 11.011a6.05 6.05 0 0 0-3.08-6.93c.66-.44 1.43-.66 2.2-.66a3.85 3.85 0 0 1 .88 7.59m2.42 7.81h.55a2.2 2.2 0 0 0 2.2-2.2 4.4 4.4 0 0 0-4.4-4.4h-1.21l-.55.88c2.09 1.1 3.41 3.3 3.41 5.72M3.2 7.271a3.85 3.85 0 0 1 6.05-3.19 6.05 6.05 0 0 0-3.08 7.04 3.85 3.85 0 0 1-2.97-3.85m3.41 4.95H5.4a4.4 4.4 0 0 0-4.4 4.4c0 1.21.99 2.2 2.2 2.2h.55a6.6 6.6 0 0 1 3.3-5.72z" clip-rule="evenodd" opacity=".5"/><path fill="#44c987" fill-rule="evenodd" d="M12 5.621a3.85 3.85 0 1 0 0 7.7 3.85 3.85 0 0 0 0-7.7m-1.65 8.8a4.4 4.4 0 0 0-4.4 4.4c0 1.21.99 2.2 2.2 2.2h7.7a2.2 2.2 0 0 0 2.2-2.2 4.4 4.4 0 0 0-4.4-4.4z" clip-rule="evenodd"/></svg>